<svg height="100%" id="Layer_1" data-name="Layer 1" role="image" xmlns="http://www.w3.org/2000/svg" xmlns:xlink="http://www.w3.org/1999/xlink" viewBox="0 0 677.9 280.15">
                  <defs>
                    <style>
                      .cls-1 {
                        fill: none;
                      }
                      .cls-2 {
                        clip-path: url(#clip-path);
                      }
                      .cls-3 {
                        fill: #0b2b78;
                      }
                    </style>
                    <clipPath id="clip-path" transform="translate(-36 -70.87)">
                      <rect class="cls-1" width="850.39" height="850.39"></rect>
                    </clipPath>
                  </defs>
                  <g class="cls-2">
                    <path class="cls-3" d="M201,288.33a128.37,128.37,0,0,1,40.11-91.08H201A128.73,128.73,0,0,1,326.7,70.87v46.52a82.23,82.23,0,0,0-78.85,73.87,128.19,128.19,0,0,1,78.85-29.32v46.53a82.23,82.23,0,0,0-79.23,79.86V351L201,351Z" transform="translate(-36 -70.87)"></path>
                    <path class="cls-3" d="M713.9,307.63H677.33V277.3h31.16V269H677.33V241.67h36.1v-8.35H667.69v83.25H713.9Zm-58-74.31H587.14v8.94h29.4v74.31h10V242.26h29.39Zm-80.54,0h-9.65v62.44L510,230.61h-1.3v86h9.65V254.13l55.73,65.15h1.3ZM473.77,300.11a28.07,28.07,0,0,1-21.91,10q-13,0-21.91-10.05t-9-25.11q0-15.17,9-25.16t21.91-10a28.07,28.07,0,0,1,21.91,10q8.84,10,8.84,25.16t-8.84,25.17m6.9-56.74q-11.94-12.75-28.87-12.76t-28.92,12.7Q411,256,411,274.94t11.93,31.58q11.94,12.75,28.87,12.76a38.67,38.67,0,0,0,18.11-4.47,40.27,40.27,0,0,0,14.35-12.59q8.34-11.64,8.34-27.28,0-18.81-11.93-31.57m-80-10.05H354.32v83.25h9.76v-37h33.16v-8.7H364.08V242h36.57Z" transform="translate(-36 -70.87)"></path>
                  </g>
                  <path class="cls-3" d="M155,233.33H97.89v9.47h23.6v74.08h10V242.8H155Zm-61.89,0H36v9.47H59.6v74.08H69.65V242.8H93.14Z" transform="translate(-36 -70.87)"></path>
                </svg>